<!DOCTYPE svg PUBLIC "-//W3C//DTD SVG 1.1//EN" "http://www.w3.org/Graphics/SVG/1.1/DTD/svg11.dtd">
<!-- Uploaded to: SVG Repo, www.svgrepo.com, Transformed by: SVG Repo Mixer Tools -->
<svg fill="#44ecf8" version="1.1" id="Capa_1" xmlns="http://www.w3.org/2000/svg" xmlns:xlink="http://www.w3.org/1999/xlink" width="153px" height="153px" viewBox="-51.5 -51.5 617.95 617.95" xml:space="preserve" stroke="#44ecf8">
<g id="SVGRepo_bgCarrier" stroke-width="0"/>
<g id="SVGRepo_tracerCarrier" stroke-linecap="round" stroke-linejoin="round" stroke="#8c8c8c" stroke-width="31.927024"> <g> <g> <path d="M316.099,85.846c-24.586-35.32-45.821-65.827-50.974-80.433c-1.139-3.215-4.145-5.372-7.554-5.414 c-3.15,0.096-6.476,2.044-7.68,5.227c-5.244,13.812-25.405,42.765-48.752,76.314C147.671,158.326,74.447,263.494,74.447,331.917 c0,100.926,82.103,183.034,183.029,183.034s183.029-82.108,183.029-183.034C440.505,264.6,368.599,161.285,316.099,85.846z"/> </g> </g> </g>
<g id="SVGRepo_iconCarrier"> <g> <g> <path d="M316.099,85.846c-24.586-35.32-45.821-65.827-50.974-80.433c-1.139-3.215-4.145-5.372-7.554-5.414 c-3.15,0.096-6.476,2.044-7.68,5.227c-5.244,13.812-25.405,42.765-48.752,76.314C147.671,158.326,74.447,263.494,74.447,331.917 c0,100.926,82.103,183.034,183.029,183.034s183.029-82.108,183.029-183.034C440.505,264.6,368.599,161.285,316.099,85.846z"/> </g> </g> </g>
</svg>